<mxfile host="www.draw.io" modified="2020-01-20T14:01:16.103Z" agent="Mozilla/5.0 (Windows NT 10.0; Win64; x64) AppleWebKit/537.36 (KHTML, like Gecko) Chrome/79.0.3945.117 Safari/537.36" etag="Xvq-Q_wYfzHORUleVyEQ" version="12.5.5" type="github" pages="5">
  <diagram id="_vzvbNv-li9IqQeby7kl" name="Main">
    <mxGraphModel dx="1422" dy="745" grid="1" gridSize="10" guides="1" tooltips="1" connect="1" arrows="1" fold="1" page="1" pageScale="1" pageWidth="827" pageHeight="1169" math="0" shadow="0">
      <root>
        <mxCell id="qLeFHLmynjRaj85It-eU-0"/>
        <mxCell id="qLeFHLmynjRaj85It-eU-1" parent="qLeFHLmynjRaj85It-eU-0"/>
        <mxCell id="qLeFHLmynjRaj85It-eU-6" style="edgeStyle=orthogonalEdgeStyle;rounded=0;orthogonalLoop=1;jettySize=auto;html=1;exitX=0.5;exitY=1;exitDx=0;exitDy=0;" edge="1" parent="qLeFHLmynjRaj85It-eU-1" source="qLeFHLmynjRaj85It-eU-2" target="qLeFHLmynjRaj85It-eU-5">
          <mxGeometry relative="1" as="geometry"/>
        </mxCell>
        <mxCell id="qLeFHLmynjRaj85It-eU-2" value="&lt;div&gt;int inputPin=A0;&amp;nbsp; // ultrasonic module&amp;nbsp; &amp;nbsp;ECHO to A0&lt;/div&gt;&lt;div&gt;int outputPin=A1;&amp;nbsp; // ultrasonic module&amp;nbsp; TRIG to A1&lt;/div&gt;&lt;div&gt;#define Lpwm_pin&amp;nbsp; 5&amp;nbsp; &amp;nbsp; &amp;nbsp;//pin of controlling speed---- ENA of motor driver board&lt;/div&gt;&lt;div&gt;#define Rpwm_pin&amp;nbsp; 10&amp;nbsp; &amp;nbsp; //pin of controlling speed---- ENB of motor driver board&lt;/div&gt;&lt;div&gt;int pinLB=2;&amp;nbsp; &amp;nbsp; &amp;nbsp; &amp;nbsp; &amp;nbsp; &amp;nbsp; &amp;nbsp;//pin of controlling turning---- IN1 of motor driver board&lt;/div&gt;&lt;div&gt;int pinLF=4;&amp;nbsp; &amp;nbsp; &amp;nbsp; &amp;nbsp; &amp;nbsp; &amp;nbsp; &amp;nbsp;//pin of controlling turning---- IN2 of motor driver board&lt;/div&gt;&lt;div&gt;int pinRB=7;&amp;nbsp; &amp;nbsp; &amp;nbsp; &amp;nbsp; &amp;nbsp; &amp;nbsp; //pin of controlling turning---- IN3 of motor driver board&lt;/div&gt;&lt;div&gt;int pinRF=8;&amp;nbsp; &amp;nbsp; &amp;nbsp; &amp;nbsp; &amp;nbsp; &amp;nbsp; //pin of controlling turning---- IN4 of motor driver board&lt;/div&gt;&lt;div&gt;unsigned char Lpwm_val = 200; //initialized left wheel speed at 250&lt;/div&gt;&lt;div&gt;unsigned char Rpwm_val = 200; //initialized right wheel speed at 250&lt;/div&gt;&lt;div&gt;int Car_state=0;&amp;nbsp; &amp;nbsp; &amp;nbsp; &amp;nbsp; &amp;nbsp; &amp;nbsp; &amp;nbsp;//the working state of car&lt;/div&gt;&lt;div&gt;int servopin=3;&amp;nbsp; &amp;nbsp; &amp;nbsp; &amp;nbsp; &amp;nbsp; &amp;nbsp; &amp;nbsp; //defining digital port pin 3, connecting to signal line of servo motor&lt;/div&gt;&lt;div&gt;int myangle;&amp;nbsp; &amp;nbsp; &amp;nbsp; &amp;nbsp; &amp;nbsp; &amp;nbsp; &amp;nbsp; &amp;nbsp; //defining variable of angle&lt;/div&gt;&lt;div&gt;int pulsewidth;&amp;nbsp; &amp;nbsp; &amp;nbsp; &amp;nbsp; &amp;nbsp; &amp;nbsp; &amp;nbsp; //defining variable of pulse width&lt;/div&gt;&lt;div&gt;unsigned char DuoJiao=60;&amp;nbsp; &amp;nbsp; //initialized angle of motor at 60Â°&lt;/div&gt;" style="rounded=0;whiteSpace=wrap;html=1;align=left;" vertex="1" parent="qLeFHLmynjRaj85It-eU-1">
          <mxGeometry x="147.5" y="120" width="485" height="230" as="geometry"/>
        </mxCell>
        <mxCell id="qLeFHLmynjRaj85It-eU-4" style="edgeStyle=orthogonalEdgeStyle;rounded=0;orthogonalLoop=1;jettySize=auto;html=1;exitX=0.5;exitY=1;exitDx=0;exitDy=0;entryX=0.5;entryY=0;entryDx=0;entryDy=0;" edge="1" parent="qLeFHLmynjRaj85It-eU-1" source="qLeFHLmynjRaj85It-eU-3" target="qLeFHLmynjRaj85It-eU-2">
          <mxGeometry relative="1" as="geometry"/>
        </mxCell>
        <mxCell id="qLeFHLmynjRaj85It-eU-3" value="begin" style="rounded=1;whiteSpace=wrap;html=1;align=center;" vertex="1" parent="qLeFHLmynjRaj85It-eU-1">
          <mxGeometry x="330" y="70" width="120" height="30" as="geometry"/>
        </mxCell>
        <mxCell id="qLeFHLmynjRaj85It-eU-8" style="edgeStyle=orthogonalEdgeStyle;rounded=0;orthogonalLoop=1;jettySize=auto;html=1;exitX=0.5;exitY=1;exitDx=0;exitDy=0;entryX=0.5;entryY=0;entryDx=0;entryDy=0;" edge="1" parent="qLeFHLmynjRaj85It-eU-1" source="qLeFHLmynjRaj85It-eU-5" target="qLeFHLmynjRaj85It-eU-7">
          <mxGeometry relative="1" as="geometry"/>
        </mxCell>
        <mxCell id="qLeFHLmynjRaj85It-eU-5" value="setup();" style="rounded=0;whiteSpace=wrap;html=1;align=center;" vertex="1" parent="qLeFHLmynjRaj85It-eU-1">
          <mxGeometry x="330" y="380" width="120" height="60" as="geometry"/>
        </mxCell>
        <mxCell id="qLeFHLmynjRaj85It-eU-7" value="loop();" style="rounded=0;whiteSpace=wrap;html=1;align=center;" vertex="1" parent="qLeFHLmynjRaj85It-eU-1">
          <mxGeometry x="330" y="470" width="120" height="60" as="geometry"/>
        </mxCell>
        <mxCell id="qLeFHLmynjRaj85It-eU-14" style="edgeStyle=orthogonalEdgeStyle;rounded=0;orthogonalLoop=1;jettySize=auto;html=1;exitX=0.5;exitY=1;exitDx=0;exitDy=0;entryX=0.5;entryY=0;entryDx=0;entryDy=0;" edge="1" parent="qLeFHLmynjRaj85It-eU-1" source="qLeFHLmynjRaj85It-eU-10" target="qLeFHLmynjRaj85It-eU-13">
          <mxGeometry relative="1" as="geometry"/>
        </mxCell>
        <mxCell id="qLeFHLmynjRaj85It-eU-10" value="&lt;div&gt;&amp;nbsp; &amp;nbsp;pinMode(servopin,OUTPUT);&amp;nbsp; //setting motor interface as output&lt;/div&gt;&lt;div&gt;&amp;nbsp; &amp;nbsp;M_Control_IO_config();&amp;nbsp; &amp;nbsp; &amp;nbsp;//motor controlling the initialization of IO&lt;/div&gt;&lt;div&gt;&amp;nbsp; &amp;nbsp;Set_Speed(Lpwm_val,Rpwm_val);&amp;nbsp; //setting initialized speed&lt;/div&gt;&lt;div&gt;&amp;nbsp; &amp;nbsp;Set_servopulse(DuoJiao);&amp;nbsp; &amp;nbsp; &amp;nbsp; &amp;nbsp;//setting initialized motor angle&lt;/div&gt;&lt;div&gt;&amp;nbsp; &amp;nbsp;pinMode(inputPin, INPUT);&amp;nbsp; &amp;nbsp; &amp;nbsp; //starting receiving IR remote control signal&lt;/div&gt;&lt;div&gt;&amp;nbsp; &amp;nbsp;pinMode(outputPin, OUTPUT);&amp;nbsp; &amp;nbsp; //IO of ultrasonic module&lt;/div&gt;&lt;div&gt;&amp;nbsp; &amp;nbsp;Serial.begin(9600);&amp;nbsp; &amp;nbsp; &amp;nbsp; &amp;nbsp; &amp;nbsp; &amp;nbsp; //initialized serial port , using Bluetooth as serial port, setting baud&amp;nbsp;&lt;/div&gt;&lt;div&gt;&amp;nbsp; &amp;nbsp;stopp();&amp;nbsp; &amp;nbsp; &amp;nbsp; &amp;nbsp; &amp;nbsp; &amp;nbsp; &amp;nbsp; &amp;nbsp; &amp;nbsp; &amp;nbsp; &amp;nbsp; &amp;nbsp;//stop&lt;/div&gt;" style="rounded=0;whiteSpace=wrap;html=1;align=left;" vertex="1" parent="qLeFHLmynjRaj85It-eU-1">
          <mxGeometry x="135" y="670" width="510" height="140" as="geometry"/>
        </mxCell>
        <mxCell id="qLeFHLmynjRaj85It-eU-12" style="edgeStyle=orthogonalEdgeStyle;rounded=0;orthogonalLoop=1;jettySize=auto;html=1;exitX=0.5;exitY=1;exitDx=0;exitDy=0;entryX=0.5;entryY=0;entryDx=0;entryDy=0;" edge="1" parent="qLeFHLmynjRaj85It-eU-1" source="qLeFHLmynjRaj85It-eU-11" target="qLeFHLmynjRaj85It-eU-10">
          <mxGeometry relative="1" as="geometry">
            <Array as="points">
              <mxPoint x="390" y="670"/>
              <mxPoint x="390" y="670"/>
            </Array>
          </mxGeometry>
        </mxCell>
        <mxCell id="qLeFHLmynjRaj85It-eU-11" value="begin" style="rounded=1;whiteSpace=wrap;html=1;align=center;" vertex="1" parent="qLeFHLmynjRaj85It-eU-1">
          <mxGeometry x="330" y="610" width="120" height="30" as="geometry"/>
        </mxCell>
        <mxCell id="qLeFHLmynjRaj85It-eU-13" value="end" style="rounded=1;whiteSpace=wrap;html=1;align=center;" vertex="1" parent="qLeFHLmynjRaj85It-eU-1">
          <mxGeometry x="330" y="840" width="120" height="30" as="geometry"/>
        </mxCell>
        <mxCell id="qLeFHLmynjRaj85It-eU-15" value="&lt;b&gt;setup();&lt;/b&gt;" style="text;html=1;strokeColor=none;fillColor=none;align=center;verticalAlign=middle;whiteSpace=wrap;rounded=0;" vertex="1" parent="qLeFHLmynjRaj85It-eU-1">
          <mxGeometry x="135" y="590" width="40" height="20" as="geometry"/>
        </mxCell>
        <mxCell id="qLeFHLmynjRaj85It-eU-16" style="edgeStyle=orthogonalEdgeStyle;rounded=0;orthogonalLoop=1;jettySize=auto;html=1;exitX=0.5;exitY=1;exitDx=0;exitDy=0;entryX=0.5;entryY=0;entryDx=0;entryDy=0;" edge="1" parent="qLeFHLmynjRaj85It-eU-1" target="qLeFHLmynjRaj85It-eU-17" source="qLeFHLmynjRaj85It-eU-7">
          <mxGeometry relative="1" as="geometry">
            <mxPoint x="390" y="520" as="sourcePoint"/>
          </mxGeometry>
        </mxCell>
        <mxCell id="qLeFHLmynjRaj85It-eU-17" value="end" style="rounded=1;whiteSpace=wrap;html=1;align=center;" vertex="1" parent="qLeFHLmynjRaj85It-eU-1">
          <mxGeometry x="330" y="550" width="120" height="30" as="geometry"/>
        </mxCell>
        <mxCell id="qLeFHLmynjRaj85It-eU-18" style="edgeStyle=orthogonalEdgeStyle;rounded=0;orthogonalLoop=1;jettySize=auto;html=1;exitX=0.5;exitY=1;exitDx=0;exitDy=0;entryX=0.5;entryY=0;entryDx=0;entryDy=0;" edge="1" parent="qLeFHLmynjRaj85It-eU-1" source="qLeFHLmynjRaj85It-eU-19" target="qLeFHLmynjRaj85It-eU-22">
          <mxGeometry relative="1" as="geometry"/>
        </mxCell>
        <mxCell id="qLeFHLmynjRaj85It-eU-19" value="&lt;div&gt;Self_Control();&lt;/div&gt;" style="rounded=0;whiteSpace=wrap;html=1;align=left;" vertex="1" parent="qLeFHLmynjRaj85It-eU-1">
          <mxGeometry x="330" y="990" width="120" height="31" as="geometry"/>
        </mxCell>
        <mxCell id="qLeFHLmynjRaj85It-eU-20" style="edgeStyle=orthogonalEdgeStyle;rounded=0;orthogonalLoop=1;jettySize=auto;html=1;exitX=0.5;exitY=1;exitDx=0;exitDy=0;entryX=0.5;entryY=0;entryDx=0;entryDy=0;" edge="1" parent="qLeFHLmynjRaj85It-eU-1" source="qLeFHLmynjRaj85It-eU-21" target="qLeFHLmynjRaj85It-eU-19">
          <mxGeometry relative="1" as="geometry">
            <Array as="points">
              <mxPoint x="390" y="990"/>
              <mxPoint x="390" y="990"/>
            </Array>
          </mxGeometry>
        </mxCell>
        <mxCell id="qLeFHLmynjRaj85It-eU-21" value="begin" style="rounded=1;whiteSpace=wrap;html=1;align=center;" vertex="1" parent="qLeFHLmynjRaj85It-eU-1">
          <mxGeometry x="330" y="930" width="120" height="30" as="geometry"/>
        </mxCell>
        <mxCell id="qLeFHLmynjRaj85It-eU-22" value="end" style="rounded=1;whiteSpace=wrap;html=1;align=center;" vertex="1" parent="qLeFHLmynjRaj85It-eU-1">
          <mxGeometry x="330" y="1051" width="120" height="30" as="geometry"/>
        </mxCell>
        <mxCell id="qLeFHLmynjRaj85It-eU-23" value="&lt;b&gt;loop();&lt;/b&gt;" style="text;html=1;strokeColor=none;fillColor=none;align=center;verticalAlign=middle;whiteSpace=wrap;rounded=0;" vertex="1" parent="qLeFHLmynjRaj85It-eU-1">
          <mxGeometry x="135" y="910" width="40" height="20" as="geometry"/>
        </mxCell>
      </root>
    </mxGraphModel>
  </diagram>
  <diagram id="C5RBs43oDa-KdzZeNtuy" name="Self_Control">
    <mxGraphModel dx="1422" dy="745" grid="1" gridSize="10" guides="1" tooltips="1" connect="1" arrows="1" fold="1" page="1" pageScale="1" pageWidth="827" pageHeight="1169" math="0" shadow="0">
      <root>
        <mxCell id="WIyWlLk6GJQsqaUBKTNV-0"/>
        <mxCell id="WIyWlLk6GJQsqaUBKTNV-1" parent="WIyWlLk6GJQsqaUBKTNV-0"/>
        <mxCell id="w_57-_hiGpUpbvnZZrg0-9" style="edgeStyle=orthogonalEdgeStyle;rounded=0;orthogonalLoop=1;jettySize=auto;html=1;exitX=0.5;exitY=1;exitDx=0;exitDy=0;entryX=0.5;entryY=0;entryDx=0;entryDy=0;" parent="WIyWlLk6GJQsqaUBKTNV-1" target="w_57-_hiGpUpbvnZZrg0-8" edge="1" source="w_57-_hiGpUpbvnZZrg0-47">
          <mxGeometry relative="1" as="geometry">
            <mxPoint x="150" y="170" as="sourcePoint"/>
          </mxGeometry>
        </mxCell>
        <mxCell id="w_57-_hiGpUpbvnZZrg0-1" value="Self_Control()" style="text;html=1;strokeColor=none;fillColor=none;align=center;verticalAlign=middle;whiteSpace=wrap;rounded=0;fontStyle=1" parent="WIyWlLk6GJQsqaUBKTNV-1" vertex="1">
          <mxGeometry x="335" y="60" width="40" height="20" as="geometry"/>
        </mxCell>
        <mxCell id="w_57-_hiGpUpbvnZZrg0-15" style="edgeStyle=orthogonalEdgeStyle;rounded=0;orthogonalLoop=1;jettySize=auto;html=1;exitX=1;exitY=0.5;exitDx=0;exitDy=0;entryX=0.5;entryY=0;entryDx=0;entryDy=0;" parent="WIyWlLk6GJQsqaUBKTNV-1" source="w_57-_hiGpUpbvnZZrg0-8" target="w_57-_hiGpUpbvnZZrg0-14" edge="1">
          <mxGeometry relative="1" as="geometry"/>
        </mxCell>
        <mxCell id="kPLeBILsmZjsICg0VYM5-7" style="edgeStyle=orthogonalEdgeStyle;rounded=0;orthogonalLoop=1;jettySize=auto;html=1;exitX=0.5;exitY=1;exitDx=0;exitDy=0;entryX=0.5;entryY=0;entryDx=0;entryDy=0;" edge="1" parent="WIyWlLk6GJQsqaUBKTNV-1" source="w_57-_hiGpUpbvnZZrg0-8" target="w_57-_hiGpUpbvnZZrg0-10">
          <mxGeometry relative="1" as="geometry"/>
        </mxCell>
        <mxCell id="w_57-_hiGpUpbvnZZrg0-8" value="Ultrasonic_Ranging(1) &amp;lt; 35" style="rhombus;whiteSpace=wrap;html=1;align=center;" parent="WIyWlLk6GJQsqaUBKTNV-1" vertex="1">
          <mxGeometry x="180" y="150" width="80" height="50" as="geometry"/>
        </mxCell>
        <mxCell id="w_57-_hiGpUpbvnZZrg0-16" style="edgeStyle=orthogonalEdgeStyle;rounded=0;orthogonalLoop=1;jettySize=auto;html=1;exitX=0.5;exitY=1;exitDx=0;exitDy=0;entryX=0.5;entryY=0;entryDx=0;entryDy=0;" parent="WIyWlLk6GJQsqaUBKTNV-1" source="w_57-_hiGpUpbvnZZrg0-10" target="w_57-_hiGpUpbvnZZrg0-14" edge="1">
          <mxGeometry relative="1" as="geometry">
            <mxPoint x="614" y="151" as="targetPoint"/>
            <Array as="points">
              <mxPoint x="220" y="270"/>
              <mxPoint x="494" y="270"/>
            </Array>
            <mxPoint x="274" y="231" as="sourcePoint"/>
          </mxGeometry>
        </mxCell>
        <mxCell id="w_57-_hiGpUpbvnZZrg0-10" value="&lt;div&gt;&amp;nbsp; &amp;nbsp; &amp;nbsp; &amp;nbsp;stopp();&amp;nbsp; &amp;nbsp; &amp;nbsp; &amp;nbsp; &amp;nbsp; &amp;nbsp; &amp;nbsp;&amp;nbsp;&lt;span&gt;&amp;nbsp; &amp;nbsp; &amp;nbsp; &amp;nbsp;delay(100);&lt;/span&gt;&lt;/div&gt;&lt;div&gt;&amp;nbsp; &amp;nbsp; &amp;nbsp; &amp;nbsp;back();&amp;nbsp; &amp;nbsp; &amp;nbsp; &amp;nbsp; &amp;nbsp; &amp;nbsp; &amp;nbsp; &amp;nbsp;&lt;span&gt;&amp;nbsp; &amp;nbsp; &amp;nbsp; &amp;nbsp;delay(50);&lt;/span&gt;&lt;/div&gt;" style="rounded=0;whiteSpace=wrap;html=1;align=left;" parent="WIyWlLk6GJQsqaUBKTNV-1" vertex="1">
          <mxGeometry x="110" y="220" width="220" height="30" as="geometry"/>
        </mxCell>
        <mxCell id="w_57-_hiGpUpbvnZZrg0-21" style="edgeStyle=orthogonalEdgeStyle;rounded=0;orthogonalLoop=1;jettySize=auto;html=1;exitX=0.5;exitY=1;exitDx=0;exitDy=0;entryX=0.5;entryY=0;entryDx=0;entryDy=0;" parent="WIyWlLk6GJQsqaUBKTNV-1" source="w_57-_hiGpUpbvnZZrg0-14" target="w_57-_hiGpUpbvnZZrg0-22" edge="1">
          <mxGeometry relative="1" as="geometry">
            <mxPoint x="260" y="490" as="targetPoint"/>
          </mxGeometry>
        </mxCell>
        <mxCell id="w_57-_hiGpUpbvnZZrg0-41" style="edgeStyle=orthogonalEdgeStyle;rounded=0;orthogonalLoop=1;jettySize=auto;html=1;exitX=1;exitY=0.5;exitDx=0;exitDy=0;entryX=0.5;entryY=0;entryDx=0;entryDy=0;" parent="WIyWlLk6GJQsqaUBKTNV-1" source="w_57-_hiGpUpbvnZZrg0-14" target="w_57-_hiGpUpbvnZZrg0-39" edge="1">
          <mxGeometry relative="1" as="geometry">
            <mxPoint x="520" y="1316" as="targetPoint"/>
          </mxGeometry>
        </mxCell>
        <mxCell id="w_57-_hiGpUpbvnZZrg0-14" value="&lt;span style=&quot;white-space: normal;&quot;&gt;Ultrasonic_Ranging(1) &amp;lt; 60&lt;/span&gt;" style="rhombus;whiteSpace=wrap;html=1;align=center;" parent="WIyWlLk6GJQsqaUBKTNV-1" vertex="1">
          <mxGeometry x="454" y="300" width="80" height="49" as="geometry"/>
        </mxCell>
        <mxCell id="w_57-_hiGpUpbvnZZrg0-24" style="edgeStyle=orthogonalEdgeStyle;rounded=0;orthogonalLoop=1;jettySize=auto;html=1;exitX=0.5;exitY=1;exitDx=0;exitDy=0;entryX=0.5;entryY=0;entryDx=0;entryDy=0;" parent="WIyWlLk6GJQsqaUBKTNV-1" source="w_57-_hiGpUpbvnZZrg0-22" target="w_57-_hiGpUpbvnZZrg0-23" edge="1">
          <mxGeometry relative="1" as="geometry"/>
        </mxCell>
        <mxCell id="w_57-_hiGpUpbvnZZrg0-22" value="&lt;span style=&quot;white-space: nowrap&quot;&gt;stopp(); delay(100);&amp;nbsp;&lt;/span&gt;&lt;br style=&quot;white-space: nowrap&quot;&gt;&lt;span style=&quot;white-space: nowrap&quot;&gt;Set_servopulse(5);&amp;nbsp;&lt;/span&gt;&lt;br style=&quot;white-space: nowrap&quot;&gt;&lt;span style=&quot;white-space: nowrap&quot;&gt;int L = ask_pin_L(2); delay(300);&amp;nbsp;&lt;/span&gt;&lt;br style=&quot;white-space: nowrap&quot;&gt;&lt;span style=&quot;white-space: nowrap&quot;&gt;Set_servopulse(177);&amp;nbsp;&lt;/span&gt;&lt;br style=&quot;white-space: nowrap&quot;&gt;&lt;span style=&quot;white-space: nowrap&quot;&gt;int R = ask_pin_R(3); delay(300);&lt;/span&gt;" style="rounded=0;whiteSpace=wrap;html=1;align=left;" parent="WIyWlLk6GJQsqaUBKTNV-1" vertex="1">
          <mxGeometry x="400" y="370" width="190" height="80" as="geometry"/>
        </mxCell>
        <mxCell id="w_57-_hiGpUpbvnZZrg0-27" style="edgeStyle=orthogonalEdgeStyle;rounded=0;orthogonalLoop=1;jettySize=auto;html=1;exitX=0.5;exitY=1;exitDx=0;exitDy=0;entryX=0.5;entryY=0;entryDx=0;entryDy=0;" parent="WIyWlLk6GJQsqaUBKTNV-1" source="w_57-_hiGpUpbvnZZrg0-23" target="w_57-_hiGpUpbvnZZrg0-25" edge="1">
          <mxGeometry relative="1" as="geometry"/>
        </mxCell>
        <mxCell id="w_57-_hiGpUpbvnZZrg0-29" style="edgeStyle=orthogonalEdgeStyle;rounded=0;orthogonalLoop=1;jettySize=auto;html=1;exitX=1;exitY=0.5;exitDx=0;exitDy=0;entryX=0.5;entryY=0;entryDx=0;entryDy=0;" parent="WIyWlLk6GJQsqaUBKTNV-1" source="w_57-_hiGpUpbvnZZrg0-23" target="w_57-_hiGpUpbvnZZrg0-28" edge="1">
          <mxGeometry relative="1" as="geometry">
            <Array as="points">
              <mxPoint x="640" y="510"/>
              <mxPoint x="640" y="660"/>
              <mxPoint x="500" y="660"/>
            </Array>
          </mxGeometry>
        </mxCell>
        <mxCell id="w_57-_hiGpUpbvnZZrg0-23" value="ask_pin_L(2) &amp;gt; ask_pin_R(3)" style="rhombus;whiteSpace=wrap;html=1;align=center;" parent="WIyWlLk6GJQsqaUBKTNV-1" vertex="1">
          <mxGeometry x="460" y="470" width="80" height="80" as="geometry"/>
        </mxCell>
        <mxCell id="w_57-_hiGpUpbvnZZrg0-30" style="edgeStyle=orthogonalEdgeStyle;rounded=0;orthogonalLoop=1;jettySize=auto;html=1;exitX=0.5;exitY=1;exitDx=0;exitDy=0;entryX=0.5;entryY=0;entryDx=0;entryDy=0;" parent="WIyWlLk6GJQsqaUBKTNV-1" source="w_57-_hiGpUpbvnZZrg0-25" target="w_57-_hiGpUpbvnZZrg0-28" edge="1">
          <mxGeometry relative="1" as="geometry"/>
        </mxCell>
        <mxCell id="w_57-_hiGpUpbvnZZrg0-25" value="&lt;div&gt;&lt;span style=&quot;white-space: nowrap&quot;&gt;&amp;nbsp; &amp;nbsp; &amp;nbsp; &amp;nbsp;back();&amp;nbsp;&lt;/span&gt;&lt;span style=&quot;white-space: nowrap&quot;&gt;delay(100);&amp;nbsp; &amp;nbsp; &amp;nbsp;&amp;nbsp;&lt;/span&gt;&lt;/div&gt;&lt;div&gt;&lt;span style=&quot;white-space: nowrap&quot;&gt;&amp;nbsp; &amp;nbsp; &amp;nbsp; &amp;nbsp;turnL();&lt;/span&gt;&lt;span style=&quot;white-space: nowrap&quot;&gt;&amp;nbsp;delay(400);&amp;nbsp; &amp;nbsp; &amp;nbsp; &amp;nbsp; &amp;nbsp; &amp;nbsp; &amp;nbsp; &amp;nbsp; &amp;nbsp;&amp;nbsp;&lt;/span&gt;&lt;/div&gt;&lt;div&gt;&lt;span style=&quot;white-space: nowrap&quot;&gt;&amp;nbsp; &amp;nbsp; &amp;nbsp; &amp;nbsp;stopp();&amp;nbsp; d&lt;/span&gt;&lt;span style=&quot;white-space: nowrap&quot;&gt;elay(50);&amp;nbsp; &amp;nbsp; &amp;nbsp; &amp;nbsp; &amp;nbsp; &amp;nbsp;&amp;nbsp;&lt;/span&gt;&lt;/div&gt;&lt;div&gt;&lt;span style=&quot;white-space: nowrap&quot;&gt;&amp;nbsp; &amp;nbsp; &amp;nbsp; &amp;nbsp;Set_servopulse(DuoJiao);&lt;/span&gt;&lt;/div&gt;&lt;div&gt;&lt;span style=&quot;white-space: nowrap&quot;&gt;&amp;nbsp; &amp;nbsp; &amp;nbsp; &amp;nbsp;H = Ultrasonic_Ranging(1);&lt;/span&gt;&lt;span style=&quot;white-space: nowrap&quot;&gt;&amp;nbsp; &amp;nbsp;delay(500);&lt;/span&gt;&lt;/div&gt;" style="rounded=0;whiteSpace=wrap;html=1;align=left;" parent="WIyWlLk6GJQsqaUBKTNV-1" vertex="1">
          <mxGeometry x="375" y="570" width="250" height="79" as="geometry"/>
        </mxCell>
        <mxCell id="w_57-_hiGpUpbvnZZrg0-32" style="edgeStyle=orthogonalEdgeStyle;rounded=0;orthogonalLoop=1;jettySize=auto;html=1;exitX=0.5;exitY=1;exitDx=0;exitDy=0;" parent="WIyWlLk6GJQsqaUBKTNV-1" source="w_57-_hiGpUpbvnZZrg0-28" target="w_57-_hiGpUpbvnZZrg0-31" edge="1">
          <mxGeometry relative="1" as="geometry">
            <Array as="points">
              <mxPoint x="500" y="770"/>
              <mxPoint x="500" y="770"/>
            </Array>
          </mxGeometry>
        </mxCell>
        <mxCell id="w_57-_hiGpUpbvnZZrg0-28" value="ask_pin_L(2)&amp;nbsp; &amp;lt;= ask_pin_R(3)" style="rhombus;whiteSpace=wrap;html=1;align=center;" parent="WIyWlLk6GJQsqaUBKTNV-1" vertex="1">
          <mxGeometry x="460" y="680" width="80" height="80" as="geometry"/>
        </mxCell>
        <mxCell id="w_57-_hiGpUpbvnZZrg0-34" style="edgeStyle=orthogonalEdgeStyle;rounded=0;orthogonalLoop=1;jettySize=auto;html=1;entryX=0.5;entryY=0;entryDx=0;entryDy=0;exitX=0.5;exitY=1;exitDx=0;exitDy=0;" parent="WIyWlLk6GJQsqaUBKTNV-1" source="w_57-_hiGpUpbvnZZrg0-31" target="w_57-_hiGpUpbvnZZrg0-33" edge="1">
          <mxGeometry relative="1" as="geometry">
            <mxPoint x="480" y="870" as="sourcePoint"/>
          </mxGeometry>
        </mxCell>
        <mxCell id="w_57-_hiGpUpbvnZZrg0-35" style="edgeStyle=orthogonalEdgeStyle;rounded=0;orthogonalLoop=1;jettySize=auto;html=1;exitX=1;exitY=0.5;exitDx=0;exitDy=0;entryX=0.5;entryY=0;entryDx=0;entryDy=0;" parent="WIyWlLk6GJQsqaUBKTNV-1" source="w_57-_hiGpUpbvnZZrg0-28" target="w_57-_hiGpUpbvnZZrg0-33" edge="1">
          <mxGeometry relative="1" as="geometry">
            <mxPoint x="495" y="951" as="targetPoint"/>
            <Array as="points">
              <mxPoint x="630" y="720"/>
              <mxPoint x="630" y="870"/>
              <mxPoint x="494" y="870"/>
            </Array>
          </mxGeometry>
        </mxCell>
        <mxCell id="w_57-_hiGpUpbvnZZrg0-31" value="&lt;div&gt;&lt;span style=&quot;white-space: nowrap&quot;&gt;&amp;nbsp; &amp;nbsp; &amp;nbsp; &amp;nbsp;back();&amp;nbsp;&amp;nbsp;&lt;/span&gt;&lt;span style=&quot;white-space: nowrap&quot;&gt;&amp;nbsp; &amp;nbsp; &amp;nbsp; &amp;nbsp;delay(100);&amp;nbsp;&amp;nbsp;&lt;/span&gt;&lt;/div&gt;&lt;div&gt;&lt;span style=&quot;white-space: nowrap&quot;&gt;&amp;nbsp; &amp;nbsp; &amp;nbsp; &amp;nbsp;turnR();&amp;nbsp;&lt;/span&gt;&lt;span style=&quot;white-space: nowrap&quot;&gt;&amp;nbsp; &amp;nbsp; &amp;nbsp; &amp;nbsp;delay(400);&amp;nbsp; &amp;nbsp;&lt;/span&gt;&lt;/div&gt;&lt;div&gt;&lt;span style=&quot;white-space: nowrap&quot;&gt;&amp;nbsp; &amp;nbsp; &amp;nbsp; &amp;nbsp;stopp();&lt;/span&gt;&lt;span style=&quot;white-space: nowrap&quot;&gt;&amp;nbsp; &amp;nbsp; &amp;nbsp; &amp;nbsp; delay(50);&amp;nbsp; &amp;nbsp; &amp;nbsp; &amp;nbsp; &amp;nbsp; &amp;nbsp;&amp;nbsp;&lt;/span&gt;&lt;/div&gt;&lt;div&gt;&lt;span style=&quot;white-space: nowrap&quot;&gt;&amp;nbsp; &amp;nbsp; &amp;nbsp; &amp;nbsp;Set_servopulse(DuoJiao);&lt;/span&gt;&lt;/div&gt;&lt;div&gt;&lt;span style=&quot;white-space: nowrap&quot;&gt;&amp;nbsp; &amp;nbsp; &amp;nbsp; &amp;nbsp;H = Ultrasonic_Ranging(1);&amp;nbsp;&lt;/span&gt;&lt;span style=&quot;white-space: nowrap&quot;&gt;delay(300);&amp;nbsp;&amp;nbsp;&lt;/span&gt;&lt;/div&gt;" style="rounded=0;whiteSpace=wrap;html=1;align=left;" parent="WIyWlLk6GJQsqaUBKTNV-1" vertex="1">
          <mxGeometry x="369" y="780" width="250" height="79" as="geometry"/>
        </mxCell>
        <mxCell id="w_57-_hiGpUpbvnZZrg0-38" style="edgeStyle=orthogonalEdgeStyle;rounded=0;orthogonalLoop=1;jettySize=auto;html=1;exitX=0.5;exitY=1;exitDx=0;exitDy=0;entryX=0.5;entryY=0;entryDx=0;entryDy=0;" parent="WIyWlLk6GJQsqaUBKTNV-1" source="w_57-_hiGpUpbvnZZrg0-33" target="w_57-_hiGpUpbvnZZrg0-37" edge="1">
          <mxGeometry relative="1" as="geometry"/>
        </mxCell>
        <mxCell id="w_57-_hiGpUpbvnZZrg0-33" value="ask_pin_L(2)&amp;nbsp; &amp;lt; 35 &lt;br&gt;&amp;amp;&amp;amp; &lt;br&gt;ask_pin_R(3)&amp;lt; 35" style="rhombus;whiteSpace=wrap;html=1;align=center;" parent="WIyWlLk6GJQsqaUBKTNV-1" vertex="1">
          <mxGeometry x="434" y="890" width="120" height="80" as="geometry"/>
        </mxCell>
        <mxCell id="w_57-_hiGpUpbvnZZrg0-45" style="edgeStyle=orthogonalEdgeStyle;rounded=0;orthogonalLoop=1;jettySize=auto;html=1;exitX=0.5;exitY=1;exitDx=0;exitDy=0;entryX=0.5;entryY=0;entryDx=0;entryDy=0;" parent="WIyWlLk6GJQsqaUBKTNV-1" source="w_57-_hiGpUpbvnZZrg0-37" target="w_57-_hiGpUpbvnZZrg0-44" edge="1">
          <mxGeometry relative="1" as="geometry"/>
        </mxCell>
        <mxCell id="w_57-_hiGpUpbvnZZrg0-37" value="&lt;div&gt;&lt;span style=&quot;white-space: nowrap&quot;&gt;&amp;nbsp; &amp;nbsp; &amp;nbsp; &amp;nbsp;stopp();&amp;nbsp; &amp;nbsp; &amp;nbsp; &amp;nbsp;&lt;/span&gt;&lt;span style=&quot;white-space: nowrap&quot;&gt;delay(50);&lt;/span&gt;&lt;/div&gt;&lt;div&gt;&lt;span style=&quot;white-space: nowrap&quot;&gt;&amp;nbsp; &amp;nbsp; &amp;nbsp; &amp;nbsp;back();&amp;nbsp;&lt;/span&gt;&lt;span style=&quot;white-space: nowrap&quot;&gt;&amp;nbsp; &amp;nbsp; &amp;nbsp; &amp;nbsp;delay(50);&amp;nbsp;&lt;/span&gt;&lt;/div&gt;" style="rounded=0;whiteSpace=wrap;html=1;align=left;" parent="WIyWlLk6GJQsqaUBKTNV-1" vertex="1">
          <mxGeometry x="399" y="990" width="190" height="39" as="geometry"/>
        </mxCell>
        <mxCell id="w_57-_hiGpUpbvnZZrg0-46" style="edgeStyle=orthogonalEdgeStyle;rounded=0;orthogonalLoop=1;jettySize=auto;html=1;exitX=0.5;exitY=1;exitDx=0;exitDy=0;entryX=0.5;entryY=0;entryDx=0;entryDy=0;" parent="WIyWlLk6GJQsqaUBKTNV-1" source="w_57-_hiGpUpbvnZZrg0-39" edge="1" target="w_57-_hiGpUpbvnZZrg0-44">
          <mxGeometry relative="1" as="geometry">
            <mxPoint x="500" y="1040" as="targetPoint"/>
            <Array as="points">
              <mxPoint x="720" y="1040"/>
              <mxPoint x="495" y="1040"/>
            </Array>
          </mxGeometry>
        </mxCell>
        <mxCell id="w_57-_hiGpUpbvnZZrg0-39" value="&lt;div&gt;&lt;span style=&quot;white-space: nowrap&quot;&gt;advance();&lt;/span&gt;&lt;/div&gt;" style="rounded=0;whiteSpace=wrap;html=1;align=center;" parent="WIyWlLk6GJQsqaUBKTNV-1" vertex="1">
          <mxGeometry x="660" y="910" width="120" height="40" as="geometry"/>
        </mxCell>
        <mxCell id="w_57-_hiGpUpbvnZZrg0-44" value="end" style="rounded=1;whiteSpace=wrap;html=1;align=center;" parent="WIyWlLk6GJQsqaUBKTNV-1" vertex="1">
          <mxGeometry x="435" y="1049" width="120" height="21" as="geometry"/>
        </mxCell>
        <mxCell id="w_57-_hiGpUpbvnZZrg0-47" value="&lt;div&gt;&amp;nbsp; &amp;nbsp;Set_servopulse(DuoJiao);&lt;br&gt;&lt;/div&gt;&lt;div&gt;&amp;nbsp; &amp;nbsp;H = Ultrasonic_Ranging(1);&lt;span&gt;&amp;nbsp; &amp;nbsp;delay(300);&amp;nbsp; &amp;nbsp;&lt;/span&gt;&lt;/div&gt;" style="rounded=0;whiteSpace=wrap;html=1;align=left;" parent="WIyWlLk6GJQsqaUBKTNV-1" vertex="1">
          <mxGeometry x="60" y="101" width="320" height="29" as="geometry"/>
        </mxCell>
        <mxCell id="w_57-_hiGpUpbvnZZrg0-49" style="edgeStyle=orthogonalEdgeStyle;rounded=0;orthogonalLoop=1;jettySize=auto;html=1;exitX=0.5;exitY=1;exitDx=0;exitDy=0;entryX=0.5;entryY=0;entryDx=0;entryDy=0;" parent="WIyWlLk6GJQsqaUBKTNV-1" source="w_57-_hiGpUpbvnZZrg0-48" target="w_57-_hiGpUpbvnZZrg0-47" edge="1">
          <mxGeometry relative="1" as="geometry"/>
        </mxCell>
        <mxCell id="w_57-_hiGpUpbvnZZrg0-48" value="begin" style="rounded=1;whiteSpace=wrap;html=1;align=center;" parent="WIyWlLk6GJQsqaUBKTNV-1" vertex="1">
          <mxGeometry x="160" y="50" width="120" height="20" as="geometry"/>
        </mxCell>
      </root>
    </mxGraphModel>
  </diagram>
  <diagram id="CZi1M1pkjr5pukE0F2FJ" name="movements">
    <mxGraphModel dx="1422" dy="745" grid="1" gridSize="10" guides="1" tooltips="1" connect="1" arrows="1" fold="1" page="1" pageScale="1" pageWidth="827" pageHeight="1169" math="0" shadow="0">
      <root>
        <mxCell id="TrLwvyBXtbngQO7aNah2-0"/>
        <mxCell id="TrLwvyBXtbngQO7aNah2-1" parent="TrLwvyBXtbngQO7aNah2-0"/>
        <mxCell id="LWlSdSai6YPcA7TRR0r2-1" style="edgeStyle=orthogonalEdgeStyle;rounded=0;orthogonalLoop=1;jettySize=auto;html=1;exitX=0.5;exitY=1;exitDx=0;exitDy=0;entryX=0.5;entryY=0;entryDx=0;entryDy=0;" parent="TrLwvyBXtbngQO7aNah2-1" source="yRdZsQY5zeXu0-GyBNps-0" target="LWlSdSai6YPcA7TRR0r2-0" edge="1">
          <mxGeometry relative="1" as="geometry"/>
        </mxCell>
        <mxCell id="yRdZsQY5zeXu0-GyBNps-0" value="begin" style="rounded=1;whiteSpace=wrap;html=1;" parent="TrLwvyBXtbngQO7aNah2-1" vertex="1">
          <mxGeometry x="320" y="70" width="120" height="30" as="geometry"/>
        </mxCell>
        <mxCell id="yRdZsQY5zeXu0-GyBNps-1" value="end" style="rounded=1;whiteSpace=wrap;html=1;" parent="TrLwvyBXtbngQO7aNah2-1" vertex="1">
          <mxGeometry x="320" y="220" width="120" height="30" as="geometry"/>
        </mxCell>
        <mxCell id="yRdZsQY5zeXu0-GyBNps-2" value="advance()&amp;nbsp; &amp;nbsp; //&amp;nbsp; going forward" style="text;html=1;strokeColor=none;fillColor=none;align=left;verticalAlign=middle;whiteSpace=wrap;rounded=0;" parent="TrLwvyBXtbngQO7aNah2-1" vertex="1">
          <mxGeometry x="180" y="40" width="220" height="20" as="geometry"/>
        </mxCell>
        <mxCell id="LWlSdSai6YPcA7TRR0r2-2" style="edgeStyle=orthogonalEdgeStyle;rounded=0;orthogonalLoop=1;jettySize=auto;html=1;exitX=0.5;exitY=1;exitDx=0;exitDy=0;entryX=0.5;entryY=0;entryDx=0;entryDy=0;" parent="TrLwvyBXtbngQO7aNah2-1" source="LWlSdSai6YPcA7TRR0r2-0" target="yRdZsQY5zeXu0-GyBNps-1" edge="1">
          <mxGeometry relative="1" as="geometry"/>
        </mxCell>
        <mxCell id="LWlSdSai6YPcA7TRR0r2-0" value="&lt;div&gt;&amp;nbsp; &amp;nbsp; &amp;nbsp;digitalWrite(pinRB,LOW);&amp;nbsp; // making motor move towards right rear&lt;/div&gt;&lt;div&gt;&amp;nbsp; &amp;nbsp; &amp;nbsp;digitalWrite(pinRF,HIGH);&lt;/div&gt;&lt;div&gt;&amp;nbsp; &amp;nbsp; &amp;nbsp;digitalWrite(pinLB,LOW);&amp;nbsp; // making motor move towards left rear&lt;/div&gt;&lt;div&gt;&amp;nbsp; &amp;nbsp; &amp;nbsp;digitalWrite(pinLF,HIGH);&amp;nbsp;&lt;/div&gt;&lt;div&gt;&amp;nbsp; &amp;nbsp; &amp;nbsp;Car_state = 1;&amp;nbsp; &amp;nbsp;&lt;/div&gt;" style="rounded=0;whiteSpace=wrap;html=1;align=left;" parent="TrLwvyBXtbngQO7aNah2-1" vertex="1">
          <mxGeometry x="170" y="120" width="420" height="80" as="geometry"/>
        </mxCell>
        <mxCell id="LWlSdSai6YPcA7TRR0r2-3" style="edgeStyle=orthogonalEdgeStyle;rounded=0;orthogonalLoop=1;jettySize=auto;html=1;exitX=0.5;exitY=1;exitDx=0;exitDy=0;entryX=0.5;entryY=0;entryDx=0;entryDy=0;" parent="TrLwvyBXtbngQO7aNah2-1" source="LWlSdSai6YPcA7TRR0r2-4" target="LWlSdSai6YPcA7TRR0r2-8" edge="1">
          <mxGeometry relative="1" as="geometry"/>
        </mxCell>
        <mxCell id="LWlSdSai6YPcA7TRR0r2-4" value="begin" style="rounded=1;whiteSpace=wrap;html=1;" parent="TrLwvyBXtbngQO7aNah2-1" vertex="1">
          <mxGeometry x="320" y="300" width="120" height="30" as="geometry"/>
        </mxCell>
        <mxCell id="LWlSdSai6YPcA7TRR0r2-5" value="end" style="rounded=1;whiteSpace=wrap;html=1;" parent="TrLwvyBXtbngQO7aNah2-1" vertex="1">
          <mxGeometry x="320" y="450" width="120" height="30" as="geometry"/>
        </mxCell>
        <mxCell id="LWlSdSai6YPcA7TRR0r2-6" value="turnR()&amp;nbsp; &amp;nbsp; &amp;nbsp; &amp;nbsp; //turning right(dual wheel)" style="text;html=1;strokeColor=none;fillColor=none;align=left;verticalAlign=middle;whiteSpace=wrap;rounded=0;" parent="TrLwvyBXtbngQO7aNah2-1" vertex="1">
          <mxGeometry x="180" y="270" width="240" height="20" as="geometry"/>
        </mxCell>
        <mxCell id="LWlSdSai6YPcA7TRR0r2-7" style="edgeStyle=orthogonalEdgeStyle;rounded=0;orthogonalLoop=1;jettySize=auto;html=1;exitX=0.5;exitY=1;exitDx=0;exitDy=0;entryX=0.5;entryY=0;entryDx=0;entryDy=0;" parent="TrLwvyBXtbngQO7aNah2-1" source="LWlSdSai6YPcA7TRR0r2-8" target="LWlSdSai6YPcA7TRR0r2-5" edge="1">
          <mxGeometry relative="1" as="geometry"/>
        </mxCell>
        <mxCell id="LWlSdSai6YPcA7TRR0r2-8" value="&lt;div&gt;&amp;nbsp; &amp;nbsp; &amp;nbsp;digitalWrite(pinRB,LOW);&amp;nbsp; //making motor move towards right rear&lt;/div&gt;&lt;div&gt;&amp;nbsp; &amp;nbsp; &amp;nbsp;digitalWrite(pinRF,HIGH);&lt;/div&gt;&lt;div&gt;&amp;nbsp; &amp;nbsp; &amp;nbsp;digitalWrite(pinLB,HIGH);&lt;/div&gt;&lt;div&gt;&amp;nbsp; &amp;nbsp; &amp;nbsp;digitalWrite(pinLF,LOW);&amp;nbsp; //making motor move towards left front&lt;/div&gt;&lt;div&gt;&amp;nbsp; &amp;nbsp; &amp;nbsp;Car_state = 4;&lt;/div&gt;" style="rounded=0;whiteSpace=wrap;html=1;align=left;" parent="TrLwvyBXtbngQO7aNah2-1" vertex="1">
          <mxGeometry x="170" y="350" width="420" height="80" as="geometry"/>
        </mxCell>
        <mxCell id="LWlSdSai6YPcA7TRR0r2-9" style="edgeStyle=orthogonalEdgeStyle;rounded=0;orthogonalLoop=1;jettySize=auto;html=1;exitX=0.5;exitY=1;exitDx=0;exitDy=0;entryX=0.5;entryY=0;entryDx=0;entryDy=0;" parent="TrLwvyBXtbngQO7aNah2-1" source="LWlSdSai6YPcA7TRR0r2-10" target="LWlSdSai6YPcA7TRR0r2-14" edge="1">
          <mxGeometry relative="1" as="geometry"/>
        </mxCell>
        <mxCell id="LWlSdSai6YPcA7TRR0r2-10" value="begin" style="rounded=1;whiteSpace=wrap;html=1;" parent="TrLwvyBXtbngQO7aNah2-1" vertex="1">
          <mxGeometry x="320" y="530" width="120" height="30" as="geometry"/>
        </mxCell>
        <mxCell id="LWlSdSai6YPcA7TRR0r2-11" value="end" style="rounded=1;whiteSpace=wrap;html=1;" parent="TrLwvyBXtbngQO7aNah2-1" vertex="1">
          <mxGeometry x="320" y="680" width="120" height="30" as="geometry"/>
        </mxCell>
        <mxCell id="LWlSdSai6YPcA7TRR0r2-12" value="turnL()&amp;nbsp; &amp;nbsp; &amp;nbsp; &amp;nbsp; &amp;nbsp;//turning left(dual wheel)" style="text;html=1;strokeColor=none;fillColor=none;align=left;verticalAlign=middle;whiteSpace=wrap;rounded=0;" parent="TrLwvyBXtbngQO7aNah2-1" vertex="1">
          <mxGeometry x="180" y="500" width="270" height="20" as="geometry"/>
        </mxCell>
        <mxCell id="LWlSdSai6YPcA7TRR0r2-13" style="edgeStyle=orthogonalEdgeStyle;rounded=0;orthogonalLoop=1;jettySize=auto;html=1;exitX=0.5;exitY=1;exitDx=0;exitDy=0;entryX=0.5;entryY=0;entryDx=0;entryDy=0;" parent="TrLwvyBXtbngQO7aNah2-1" source="LWlSdSai6YPcA7TRR0r2-14" target="LWlSdSai6YPcA7TRR0r2-11" edge="1">
          <mxGeometry relative="1" as="geometry"/>
        </mxCell>
        <mxCell id="LWlSdSai6YPcA7TRR0r2-14" value="&lt;div&gt;&amp;nbsp; &amp;nbsp; &amp;nbsp;digitalWrite(pinRB,HIGH);&lt;/div&gt;&lt;div&gt;&amp;nbsp; &amp;nbsp; &amp;nbsp;digitalWrite(pinRF,LOW );&amp;nbsp; &amp;nbsp;//making motor move towards right front&lt;/div&gt;&lt;div&gt;&amp;nbsp; &amp;nbsp; &amp;nbsp;digitalWrite(pinLB,LOW);&amp;nbsp; &amp;nbsp;//making motor move towards left rear&lt;/div&gt;&lt;div&gt;&amp;nbsp; &amp;nbsp; &amp;nbsp;digitalWrite(pinLF,HIGH);&lt;/div&gt;&lt;div&gt;&amp;nbsp; &amp;nbsp; &amp;nbsp;Car_state = 3;&lt;/div&gt;" style="rounded=0;whiteSpace=wrap;html=1;align=left;" parent="TrLwvyBXtbngQO7aNah2-1" vertex="1">
          <mxGeometry x="170" y="580" width="420" height="80" as="geometry"/>
        </mxCell>
        <mxCell id="LWlSdSai6YPcA7TRR0r2-15" style="edgeStyle=orthogonalEdgeStyle;rounded=0;orthogonalLoop=1;jettySize=auto;html=1;exitX=0.5;exitY=1;exitDx=0;exitDy=0;entryX=0.5;entryY=0;entryDx=0;entryDy=0;" parent="TrLwvyBXtbngQO7aNah2-1" source="LWlSdSai6YPcA7TRR0r2-16" target="LWlSdSai6YPcA7TRR0r2-20" edge="1">
          <mxGeometry relative="1" as="geometry"/>
        </mxCell>
        <mxCell id="LWlSdSai6YPcA7TRR0r2-16" value="begin" style="rounded=1;whiteSpace=wrap;html=1;" parent="TrLwvyBXtbngQO7aNah2-1" vertex="1">
          <mxGeometry x="320" y="750" width="120" height="30" as="geometry"/>
        </mxCell>
        <mxCell id="LWlSdSai6YPcA7TRR0r2-17" value="end" style="rounded=1;whiteSpace=wrap;html=1;" parent="TrLwvyBXtbngQO7aNah2-1" vertex="1">
          <mxGeometry x="320" y="900" width="120" height="30" as="geometry"/>
        </mxCell>
        <mxCell id="LWlSdSai6YPcA7TRR0r2-18" value="stopp()&amp;nbsp; &amp;nbsp; &amp;nbsp; &amp;nbsp; //stop" style="text;html=1;strokeColor=none;fillColor=none;align=left;verticalAlign=middle;whiteSpace=wrap;rounded=0;" parent="TrLwvyBXtbngQO7aNah2-1" vertex="1">
          <mxGeometry x="180" y="720" width="270" height="20" as="geometry"/>
        </mxCell>
        <mxCell id="LWlSdSai6YPcA7TRR0r2-19" style="edgeStyle=orthogonalEdgeStyle;rounded=0;orthogonalLoop=1;jettySize=auto;html=1;exitX=0.5;exitY=1;exitDx=0;exitDy=0;entryX=0.5;entryY=0;entryDx=0;entryDy=0;" parent="TrLwvyBXtbngQO7aNah2-1" source="LWlSdSai6YPcA7TRR0r2-20" target="LWlSdSai6YPcA7TRR0r2-17" edge="1">
          <mxGeometry relative="1" as="geometry"/>
        </mxCell>
        <mxCell id="LWlSdSai6YPcA7TRR0r2-20" value="&lt;div&gt;&amp;nbsp; &amp;nbsp; &amp;nbsp;digitalWrite(pinRB,HIGH);&lt;/div&gt;&lt;div&gt;&amp;nbsp; &amp;nbsp; &amp;nbsp;digitalWrite(pinRF,HIGH);&lt;/div&gt;&lt;div&gt;&amp;nbsp; &amp;nbsp; &amp;nbsp;digitalWrite(pinLB,HIGH);&lt;/div&gt;&lt;div&gt;&amp;nbsp; &amp;nbsp; &amp;nbsp;digitalWrite(pinLF,HIGH);&lt;/div&gt;&lt;div&gt;&amp;nbsp; &amp;nbsp; &amp;nbsp;Car_state = 5;&lt;/div&gt;" style="rounded=0;whiteSpace=wrap;html=1;align=left;" parent="TrLwvyBXtbngQO7aNah2-1" vertex="1">
          <mxGeometry x="170" y="800" width="420" height="80" as="geometry"/>
        </mxCell>
        <mxCell id="LWlSdSai6YPcA7TRR0r2-21" style="edgeStyle=orthogonalEdgeStyle;rounded=0;orthogonalLoop=1;jettySize=auto;html=1;exitX=0.5;exitY=1;exitDx=0;exitDy=0;entryX=0.5;entryY=0;entryDx=0;entryDy=0;" parent="TrLwvyBXtbngQO7aNah2-1" source="LWlSdSai6YPcA7TRR0r2-22" target="LWlSdSai6YPcA7TRR0r2-26" edge="1">
          <mxGeometry relative="1" as="geometry"/>
        </mxCell>
        <mxCell id="LWlSdSai6YPcA7TRR0r2-22" value="begin" style="rounded=1;whiteSpace=wrap;html=1;" parent="TrLwvyBXtbngQO7aNah2-1" vertex="1">
          <mxGeometry x="320" y="970" width="120" height="30" as="geometry"/>
        </mxCell>
        <mxCell id="LWlSdSai6YPcA7TRR0r2-23" value="end" style="rounded=1;whiteSpace=wrap;html=1;" parent="TrLwvyBXtbngQO7aNah2-1" vertex="1">
          <mxGeometry x="320" y="1120" width="120" height="30" as="geometry"/>
        </mxCell>
        <mxCell id="LWlSdSai6YPcA7TRR0r2-24" value="back()&amp;nbsp; &amp;nbsp; &amp;nbsp; &amp;nbsp; &amp;nbsp;//back up" style="text;html=1;strokeColor=none;fillColor=none;align=left;verticalAlign=middle;whiteSpace=wrap;rounded=0;" parent="TrLwvyBXtbngQO7aNah2-1" vertex="1">
          <mxGeometry x="180" y="940" width="270" height="20" as="geometry"/>
        </mxCell>
        <mxCell id="LWlSdSai6YPcA7TRR0r2-25" style="edgeStyle=orthogonalEdgeStyle;rounded=0;orthogonalLoop=1;jettySize=auto;html=1;exitX=0.5;exitY=1;exitDx=0;exitDy=0;entryX=0.5;entryY=0;entryDx=0;entryDy=0;" parent="TrLwvyBXtbngQO7aNah2-1" source="LWlSdSai6YPcA7TRR0r2-26" target="LWlSdSai6YPcA7TRR0r2-23" edge="1">
          <mxGeometry relative="1" as="geometry"/>
        </mxCell>
        <mxCell id="LWlSdSai6YPcA7TRR0r2-26" value="&lt;div&gt;&amp;nbsp; &amp;nbsp; &amp;nbsp;digitalWrite(pinRB,HIGH);&amp;nbsp; //making motor move towards right rear&amp;nbsp; &amp;nbsp; &amp;nbsp;&lt;/div&gt;&lt;div&gt;&amp;nbsp; &amp;nbsp; &amp;nbsp;digitalWrite(pinRF,LOW);&lt;/div&gt;&lt;div&gt;&amp;nbsp; &amp;nbsp; &amp;nbsp;digitalWrite(pinLB,HIGH);&amp;nbsp; //making motor move towards left rear&lt;/div&gt;&lt;div&gt;&amp;nbsp; &amp;nbsp; &amp;nbsp;digitalWrite(pinLF,LOW);&lt;/div&gt;&lt;div&gt;&amp;nbsp; &amp;nbsp; &amp;nbsp;Car_state = 2;&amp;nbsp;&amp;nbsp;&lt;/div&gt;" style="rounded=0;whiteSpace=wrap;html=1;align=left;" parent="TrLwvyBXtbngQO7aNah2-1" vertex="1">
          <mxGeometry x="170" y="1020" width="420" height="80" as="geometry"/>
        </mxCell>
      </root>
    </mxGraphModel>
  </diagram>
  <diagram id="LxlTmatayJX95u-TtrSM" name="sensors">
    <mxGraphModel dx="1422" dy="745" grid="1" gridSize="10" guides="1" tooltips="1" connect="1" arrows="1" fold="1" page="1" pageScale="1" pageWidth="827" pageHeight="1169" math="0" shadow="0">
      <root>
        <mxCell id="beUgp5TPmeKoyX8-LYg0-0"/>
        <mxCell id="beUgp5TPmeKoyX8-LYg0-1" parent="beUgp5TPmeKoyX8-LYg0-0"/>
        <mxCell id="swfFsxFPmf1t-wbneZTd-2" style="edgeStyle=orthogonalEdgeStyle;rounded=0;orthogonalLoop=1;jettySize=auto;html=1;exitX=0.5;exitY=1;exitDx=0;exitDy=0;entryX=0.5;entryY=0;entryDx=0;entryDy=0;" edge="1" parent="beUgp5TPmeKoyX8-LYg0-1" source="LXVzGVwt3CdWZP2nUlH6-0" target="swfFsxFPmf1t-wbneZTd-1">
          <mxGeometry relative="1" as="geometry"/>
        </mxCell>
        <mxCell id="LXVzGVwt3CdWZP2nUlH6-0" value="begin" style="rounded=1;whiteSpace=wrap;html=1;" vertex="1" parent="beUgp5TPmeKoyX8-LYg0-1">
          <mxGeometry x="320" y="80" width="120" height="30" as="geometry"/>
        </mxCell>
        <mxCell id="swfFsxFPmf1t-wbneZTd-0" value="&lt;b&gt;Ultrasonic_Ranging&lt;/b&gt;(unsigned char Mode)&lt;br&gt;//function of ultrasonic distance detecting ï¼MODE=1ï¼displayingï¼no displaying under other situation" style="text;html=1;strokeColor=none;fillColor=none;align=left;verticalAlign=middle;whiteSpace=wrap;rounded=0;" vertex="1" parent="beUgp5TPmeKoyX8-LYg0-1">
          <mxGeometry x="50" y="40" width="720" height="20" as="geometry"/>
        </mxCell>
        <mxCell id="swfFsxFPmf1t-wbneZTd-4" style="edgeStyle=orthogonalEdgeStyle;rounded=0;orthogonalLoop=1;jettySize=auto;html=1;exitX=0.5;exitY=1;exitDx=0;exitDy=0;entryX=0.5;entryY=0;entryDx=0;entryDy=0;" edge="1" parent="beUgp5TPmeKoyX8-LYg0-1" source="swfFsxFPmf1t-wbneZTd-1" target="swfFsxFPmf1t-wbneZTd-3">
          <mxGeometry relative="1" as="geometry"/>
        </mxCell>
        <mxCell id="swfFsxFPmf1t-wbneZTd-1" value="&lt;div&gt;&amp;nbsp; int old_distance;&lt;/div&gt;&lt;div&gt;&amp;nbsp; digitalWrite(outputPin, LOW);&amp;nbsp;&amp;nbsp;&lt;/div&gt;&lt;div&gt;&amp;nbsp; delayMicroseconds(2);&amp;nbsp;&lt;/div&gt;&lt;div&gt;&amp;nbsp; digitalWrite(outputPin, HIGH);&amp;nbsp;&lt;/div&gt;&lt;div&gt;&amp;nbsp; delayMicroseconds(10);&amp;nbsp;&lt;/div&gt;&lt;div&gt;&amp;nbsp; digitalWrite(outputPin, LOW);&amp;nbsp; &amp;nbsp;&amp;nbsp;&lt;/div&gt;&lt;div&gt;&amp;nbsp; int distance = pulseIn(inputPin, HIGH);&amp;nbsp; // reading the duration of high level&lt;/div&gt;&lt;div&gt;&amp;nbsp; distance= distance/58;&amp;nbsp; &amp;nbsp;// Transform pulse time to distance&amp;nbsp; &amp;nbsp;&lt;/div&gt;" style="rounded=0;whiteSpace=wrap;html=1;align=left;" vertex="1" parent="beUgp5TPmeKoyX8-LYg0-1">
          <mxGeometry x="170" y="130" width="420" height="130" as="geometry"/>
        </mxCell>
        <mxCell id="swfFsxFPmf1t-wbneZTd-15" style="edgeStyle=orthogonalEdgeStyle;rounded=0;orthogonalLoop=1;jettySize=auto;html=1;entryX=0.5;entryY=0;entryDx=0;entryDy=0;" edge="1" parent="beUgp5TPmeKoyX8-LYg0-1" source="swfFsxFPmf1t-wbneZTd-3" target="swfFsxFPmf1t-wbneZTd-14">
          <mxGeometry relative="1" as="geometry"/>
        </mxCell>
        <mxCell id="swfFsxFPmf1t-wbneZTd-3" value="Mode==1" style="rhombus;whiteSpace=wrap;html=1;align=center;" vertex="1" parent="beUgp5TPmeKoyX8-LYg0-1">
          <mxGeometry x="340" y="290" width="80" height="80" as="geometry"/>
        </mxCell>
        <mxCell id="swfFsxFPmf1t-wbneZTd-19" style="edgeStyle=orthogonalEdgeStyle;rounded=0;orthogonalLoop=1;jettySize=auto;html=1;exitX=0.5;exitY=1;exitDx=0;exitDy=0;entryX=0.5;entryY=0;entryDx=0;entryDy=0;" edge="1" parent="beUgp5TPmeKoyX8-LYg0-1" source="swfFsxFPmf1t-wbneZTd-12" target="swfFsxFPmf1t-wbneZTd-17">
          <mxGeometry relative="1" as="geometry">
            <mxPoint x="500" y="470" as="targetPoint"/>
            <Array as="points">
              <mxPoint x="380" y="460"/>
              <mxPoint x="500" y="460"/>
            </Array>
          </mxGeometry>
        </mxCell>
        <mxCell id="swfFsxFPmf1t-wbneZTd-12" value="&lt;div&gt;Serial.print(&quot;\n H = &quot;);&lt;/div&gt;&lt;div&gt;Serial.print(distance,DEC);&amp;nbsp;&lt;/div&gt;&lt;div&gt;return distance;&lt;/div&gt;" style="rounded=0;whiteSpace=wrap;html=1;align=left;" vertex="1" parent="beUgp5TPmeKoyX8-LYg0-1">
          <mxGeometry x="302.5" y="390" width="155" height="50" as="geometry"/>
        </mxCell>
        <mxCell id="swfFsxFPmf1t-wbneZTd-13" style="edgeStyle=orthogonalEdgeStyle;rounded=0;orthogonalLoop=1;jettySize=auto;html=1;exitX=0.5;exitY=1;exitDx=0;exitDy=0;entryX=0.5;entryY=0;entryDx=0;entryDy=0;" edge="1" parent="beUgp5TPmeKoyX8-LYg0-1" source="swfFsxFPmf1t-wbneZTd-3" target="swfFsxFPmf1t-wbneZTd-12">
          <mxGeometry relative="1" as="geometry">
            <mxPoint x="390" y="270" as="sourcePoint"/>
            <mxPoint x="390" y="300" as="targetPoint"/>
          </mxGeometry>
        </mxCell>
        <mxCell id="swfFsxFPmf1t-wbneZTd-18" style="edgeStyle=orthogonalEdgeStyle;rounded=0;orthogonalLoop=1;jettySize=auto;html=1;exitX=0.5;exitY=1;exitDx=0;exitDy=0;" edge="1" parent="beUgp5TPmeKoyX8-LYg0-1" source="swfFsxFPmf1t-wbneZTd-14" target="swfFsxFPmf1t-wbneZTd-17">
          <mxGeometry relative="1" as="geometry"/>
        </mxCell>
        <mxCell id="swfFsxFPmf1t-wbneZTd-14" value="&lt;div&gt;&lt;span&gt;return distance;&lt;/span&gt;&lt;br&gt;&lt;/div&gt;" style="rounded=0;whiteSpace=wrap;html=1;align=left;" vertex="1" parent="beUgp5TPmeKoyX8-LYg0-1">
          <mxGeometry x="520" y="390" width="190" height="50" as="geometry"/>
        </mxCell>
        <mxCell id="swfFsxFPmf1t-wbneZTd-17" value="end" style="rounded=1;whiteSpace=wrap;html=1;" vertex="1" parent="beUgp5TPmeKoyX8-LYg0-1">
          <mxGeometry x="440" y="480" width="120" height="30" as="geometry"/>
        </mxCell>
        <mxCell id="T9kN86jR3b1ZxTUexzNa-0" style="edgeStyle=orthogonalEdgeStyle;rounded=0;orthogonalLoop=1;jettySize=auto;html=1;exitX=0.5;exitY=1;exitDx=0;exitDy=0;entryX=0.5;entryY=0;entryDx=0;entryDy=0;" edge="1" parent="beUgp5TPmeKoyX8-LYg0-1" source="T9kN86jR3b1ZxTUexzNa-1" target="T9kN86jR3b1ZxTUexzNa-4">
          <mxGeometry relative="1" as="geometry"/>
        </mxCell>
        <mxCell id="T9kN86jR3b1ZxTUexzNa-1" value="begin" style="rounded=1;whiteSpace=wrap;html=1;" vertex="1" parent="beUgp5TPmeKoyX8-LYg0-1">
          <mxGeometry x="310" y="1250" width="120" height="30" as="geometry"/>
        </mxCell>
        <mxCell id="T9kN86jR3b1ZxTUexzNa-2" value="&lt;b&gt;ask_pin_L(unsigned char Mode)&amp;nbsp; &amp;nbsp;&lt;/b&gt;" style="text;html=1;strokeColor=none;fillColor=none;align=left;verticalAlign=middle;whiteSpace=wrap;rounded=0;" vertex="1" parent="beUgp5TPmeKoyX8-LYg0-1">
          <mxGeometry x="40" y="1210" width="720" height="20" as="geometry"/>
        </mxCell>
        <mxCell id="T9kN86jR3b1ZxTUexzNa-3" style="edgeStyle=orthogonalEdgeStyle;rounded=0;orthogonalLoop=1;jettySize=auto;html=1;exitX=0.5;exitY=1;exitDx=0;exitDy=0;entryX=0.5;entryY=0;entryDx=0;entryDy=0;" edge="1" parent="beUgp5TPmeKoyX8-LYg0-1" source="T9kN86jR3b1ZxTUexzNa-4" target="T9kN86jR3b1ZxTUexzNa-6">
          <mxGeometry relative="1" as="geometry"/>
        </mxCell>
        <mxCell id="T9kN86jR3b1ZxTUexzNa-4" value="&lt;div&gt;&amp;nbsp; int old_Ldistance;&lt;/div&gt;&lt;div&gt;&amp;nbsp; digitalWrite(outputPin, LOW);&amp;nbsp;&amp;nbsp;&lt;/div&gt;&lt;div&gt;&amp;nbsp; delayMicroseconds(2);&amp;nbsp;&lt;/div&gt;&lt;div&gt;&amp;nbsp; digitalWrite(outputPin, HIGH);&amp;nbsp;&lt;/div&gt;&lt;div&gt;&amp;nbsp; delayMicroseconds(10);&amp;nbsp;&lt;/div&gt;&lt;div&gt;&amp;nbsp; digitalWrite(outputPin, LOW);&amp;nbsp; &amp;nbsp;&amp;nbsp;&lt;/div&gt;&lt;div&gt;&amp;nbsp; int Ldistance = pulseIn(inputPin, HIGH);&amp;nbsp;&lt;/div&gt;&lt;div&gt;&amp;nbsp; Ldistance= Ldistance/58;&amp;nbsp; &amp;nbsp;// Transform pulse time to distance&amp;nbsp; &amp;nbsp;&lt;/div&gt;" style="rounded=0;whiteSpace=wrap;html=1;align=left;" vertex="1" parent="beUgp5TPmeKoyX8-LYg0-1">
          <mxGeometry x="160" y="1300" width="420" height="130" as="geometry"/>
        </mxCell>
        <mxCell id="T9kN86jR3b1ZxTUexzNa-5" style="edgeStyle=orthogonalEdgeStyle;rounded=0;orthogonalLoop=1;jettySize=auto;html=1;entryX=0.5;entryY=0;entryDx=0;entryDy=0;" edge="1" parent="beUgp5TPmeKoyX8-LYg0-1" source="T9kN86jR3b1ZxTUexzNa-6" target="T9kN86jR3b1ZxTUexzNa-11">
          <mxGeometry relative="1" as="geometry"/>
        </mxCell>
        <mxCell id="T9kN86jR3b1ZxTUexzNa-6" value="Mode==2" style="rhombus;whiteSpace=wrap;html=1;align=center;" vertex="1" parent="beUgp5TPmeKoyX8-LYg0-1">
          <mxGeometry x="330" y="1460" width="80" height="80" as="geometry"/>
        </mxCell>
        <mxCell id="T9kN86jR3b1ZxTUexzNa-7" style="edgeStyle=orthogonalEdgeStyle;rounded=0;orthogonalLoop=1;jettySize=auto;html=1;exitX=0.5;exitY=1;exitDx=0;exitDy=0;entryX=0.5;entryY=0;entryDx=0;entryDy=0;" edge="1" parent="beUgp5TPmeKoyX8-LYg0-1" source="T9kN86jR3b1ZxTUexzNa-8" target="T9kN86jR3b1ZxTUexzNa-12">
          <mxGeometry relative="1" as="geometry">
            <mxPoint x="490" y="1640" as="targetPoint"/>
            <Array as="points">
              <mxPoint x="370" y="1630"/>
              <mxPoint x="490" y="1630"/>
            </Array>
          </mxGeometry>
        </mxCell>
        <mxCell id="T9kN86jR3b1ZxTUexzNa-8" value="&lt;div&gt;&amp;nbsp;Serial.print(&quot;\n L = &quot;);&lt;span&gt;&amp;nbsp; &amp;nbsp;Serial.print(Ldistance,DEC);&amp;nbsp;&lt;/span&gt;&lt;/div&gt;&lt;div&gt;&amp;nbsp;return Ldistance;&lt;/div&gt;" style="rounded=0;whiteSpace=wrap;html=1;align=left;" vertex="1" parent="beUgp5TPmeKoyX8-LYg0-1">
          <mxGeometry x="292.5" y="1560" width="155" height="50" as="geometry"/>
        </mxCell>
        <mxCell id="T9kN86jR3b1ZxTUexzNa-9" style="edgeStyle=orthogonalEdgeStyle;rounded=0;orthogonalLoop=1;jettySize=auto;html=1;exitX=0.5;exitY=1;exitDx=0;exitDy=0;entryX=0.5;entryY=0;entryDx=0;entryDy=0;" edge="1" parent="beUgp5TPmeKoyX8-LYg0-1" source="T9kN86jR3b1ZxTUexzNa-6" target="T9kN86jR3b1ZxTUexzNa-8">
          <mxGeometry relative="1" as="geometry">
            <mxPoint x="380" y="1440" as="sourcePoint"/>
            <mxPoint x="380" y="1470" as="targetPoint"/>
          </mxGeometry>
        </mxCell>
        <mxCell id="T9kN86jR3b1ZxTUexzNa-10" style="edgeStyle=orthogonalEdgeStyle;rounded=0;orthogonalLoop=1;jettySize=auto;html=1;exitX=0.5;exitY=1;exitDx=0;exitDy=0;" edge="1" parent="beUgp5TPmeKoyX8-LYg0-1" source="T9kN86jR3b1ZxTUexzNa-11" target="T9kN86jR3b1ZxTUexzNa-12">
          <mxGeometry relative="1" as="geometry"/>
        </mxCell>
        <mxCell id="T9kN86jR3b1ZxTUexzNa-11" value="&lt;div&gt;&lt;span&gt;return Ldistance;&lt;/span&gt;&lt;br&gt;&lt;/div&gt;" style="rounded=0;whiteSpace=wrap;html=1;align=left;" vertex="1" parent="beUgp5TPmeKoyX8-LYg0-1">
          <mxGeometry x="510" y="1560" width="190" height="50" as="geometry"/>
        </mxCell>
        <mxCell id="T9kN86jR3b1ZxTUexzNa-12" value="end" style="rounded=1;whiteSpace=wrap;html=1;" vertex="1" parent="beUgp5TPmeKoyX8-LYg0-1">
          <mxGeometry x="430" y="1650" width="120" height="30" as="geometry"/>
        </mxCell>
        <mxCell id="T9kN86jR3b1ZxTUexzNa-13" style="edgeStyle=orthogonalEdgeStyle;rounded=0;orthogonalLoop=1;jettySize=auto;html=1;exitX=0.5;exitY=1;exitDx=0;exitDy=0;entryX=0.5;entryY=0;entryDx=0;entryDy=0;" edge="1" parent="beUgp5TPmeKoyX8-LYg0-1" source="T9kN86jR3b1ZxTUexzNa-14" target="T9kN86jR3b1ZxTUexzNa-17">
          <mxGeometry relative="1" as="geometry"/>
        </mxCell>
        <mxCell id="T9kN86jR3b1ZxTUexzNa-14" value="begin" style="rounded=1;whiteSpace=wrap;html=1;" vertex="1" parent="beUgp5TPmeKoyX8-LYg0-1">
          <mxGeometry x="310" y="1760" width="120" height="30" as="geometry"/>
        </mxCell>
        <mxCell id="T9kN86jR3b1ZxTUexzNa-15" value="&lt;b&gt;ask_pin_R(unsigned char Mode)&amp;nbsp; &amp;nbsp;&lt;/b&gt;" style="text;html=1;strokeColor=none;fillColor=none;align=left;verticalAlign=middle;whiteSpace=wrap;rounded=0;" vertex="1" parent="beUgp5TPmeKoyX8-LYg0-1">
          <mxGeometry x="40" y="1720" width="720" height="20" as="geometry"/>
        </mxCell>
        <mxCell id="T9kN86jR3b1ZxTUexzNa-16" style="edgeStyle=orthogonalEdgeStyle;rounded=0;orthogonalLoop=1;jettySize=auto;html=1;exitX=0.5;exitY=1;exitDx=0;exitDy=0;entryX=0.5;entryY=0;entryDx=0;entryDy=0;" edge="1" parent="beUgp5TPmeKoyX8-LYg0-1" source="T9kN86jR3b1ZxTUexzNa-17" target="T9kN86jR3b1ZxTUexzNa-19">
          <mxGeometry relative="1" as="geometry"/>
        </mxCell>
        <mxCell id="T9kN86jR3b1ZxTUexzNa-17" value="&lt;div&gt;&amp;nbsp; int old_Rdistance;&lt;/div&gt;&lt;div&gt;&amp;nbsp; digitalWrite(outputPin, LOW);&amp;nbsp;&amp;nbsp;&lt;/div&gt;&lt;div&gt;&amp;nbsp; delayMicroseconds(2);&amp;nbsp;&lt;/div&gt;&lt;div&gt;&amp;nbsp; digitalWrite(outputPin, HIGH); //&amp;nbsp;&lt;/div&gt;&lt;div&gt;&amp;nbsp; delayMicroseconds(10);&amp;nbsp;&lt;/div&gt;&lt;div&gt;&amp;nbsp; digitalWrite(outputPin, LOW);&amp;nbsp; &amp;nbsp;&amp;nbsp;&lt;/div&gt;&lt;div&gt;&amp;nbsp; int Rdistance = pulseIn(inputPin, HIGH);&amp;nbsp;&lt;/div&gt;&lt;div&gt;&amp;nbsp; Rdistance= Rdistance/58;&amp;nbsp; &amp;nbsp;// Transform pulse time to distance&amp;nbsp; &amp;nbsp;&lt;/div&gt;" style="rounded=0;whiteSpace=wrap;html=1;align=left;" vertex="1" parent="beUgp5TPmeKoyX8-LYg0-1">
          <mxGeometry x="160" y="1810" width="420" height="130" as="geometry"/>
        </mxCell>
        <mxCell id="T9kN86jR3b1ZxTUexzNa-18" style="edgeStyle=orthogonalEdgeStyle;rounded=0;orthogonalLoop=1;jettySize=auto;html=1;entryX=0.5;entryY=0;entryDx=0;entryDy=0;" edge="1" parent="beUgp5TPmeKoyX8-LYg0-1" source="T9kN86jR3b1ZxTUexzNa-19" target="T9kN86jR3b1ZxTUexzNa-24">
          <mxGeometry relative="1" as="geometry"/>
        </mxCell>
        <mxCell id="T9kN86jR3b1ZxTUexzNa-19" value="Mode==3" style="rhombus;whiteSpace=wrap;html=1;align=center;" vertex="1" parent="beUgp5TPmeKoyX8-LYg0-1">
          <mxGeometry x="330" y="1970" width="80" height="80" as="geometry"/>
        </mxCell>
        <mxCell id="T9kN86jR3b1ZxTUexzNa-20" style="edgeStyle=orthogonalEdgeStyle;rounded=0;orthogonalLoop=1;jettySize=auto;html=1;exitX=0.5;exitY=1;exitDx=0;exitDy=0;entryX=0.5;entryY=0;entryDx=0;entryDy=0;" edge="1" parent="beUgp5TPmeKoyX8-LYg0-1" source="T9kN86jR3b1ZxTUexzNa-21" target="T9kN86jR3b1ZxTUexzNa-25">
          <mxGeometry relative="1" as="geometry">
            <mxPoint x="490" y="2150" as="targetPoint"/>
            <Array as="points">
              <mxPoint x="370" y="2140"/>
              <mxPoint x="490" y="2140"/>
            </Array>
          </mxGeometry>
        </mxCell>
        <mxCell id="T9kN86jR3b1ZxTUexzNa-21" value="&lt;div&gt;Serial.print(&quot;\n R = &quot;);&lt;/div&gt;&lt;div&gt;Serial.print(distance,DEC);&amp;nbsp;&lt;/div&gt;&lt;div&gt;return Rdistance;&lt;/div&gt;" style="rounded=0;whiteSpace=wrap;html=1;align=left;" vertex="1" parent="beUgp5TPmeKoyX8-LYg0-1">
          <mxGeometry x="292.5" y="2070" width="155" height="50" as="geometry"/>
        </mxCell>
        <mxCell id="T9kN86jR3b1ZxTUexzNa-22" style="edgeStyle=orthogonalEdgeStyle;rounded=0;orthogonalLoop=1;jettySize=auto;html=1;exitX=0.5;exitY=1;exitDx=0;exitDy=0;entryX=0.5;entryY=0;entryDx=0;entryDy=0;" edge="1" parent="beUgp5TPmeKoyX8-LYg0-1" source="T9kN86jR3b1ZxTUexzNa-19" target="T9kN86jR3b1ZxTUexzNa-21">
          <mxGeometry relative="1" as="geometry">
            <mxPoint x="380" y="1950" as="sourcePoint"/>
            <mxPoint x="380" y="1980" as="targetPoint"/>
          </mxGeometry>
        </mxCell>
        <mxCell id="T9kN86jR3b1ZxTUexzNa-23" style="edgeStyle=orthogonalEdgeStyle;rounded=0;orthogonalLoop=1;jettySize=auto;html=1;exitX=0.5;exitY=1;exitDx=0;exitDy=0;" edge="1" parent="beUgp5TPmeKoyX8-LYg0-1" source="T9kN86jR3b1ZxTUexzNa-24" target="T9kN86jR3b1ZxTUexzNa-25">
          <mxGeometry relative="1" as="geometry"/>
        </mxCell>
        <mxCell id="T9kN86jR3b1ZxTUexzNa-24" value="&lt;div&gt;&lt;span&gt;return Rdistance;&lt;/span&gt;&lt;br&gt;&lt;/div&gt;" style="rounded=0;whiteSpace=wrap;html=1;align=left;" vertex="1" parent="beUgp5TPmeKoyX8-LYg0-1">
          <mxGeometry x="510" y="2070" width="190" height="50" as="geometry"/>
        </mxCell>
        <mxCell id="T9kN86jR3b1ZxTUexzNa-25" value="end" style="rounded=1;whiteSpace=wrap;html=1;" vertex="1" parent="beUgp5TPmeKoyX8-LYg0-1">
          <mxGeometry x="430" y="2160" width="120" height="30" as="geometry"/>
        </mxCell>
      </root>
    </mxGraphModel>
  </diagram>
  <diagram id="G_P_eS29h7OPjWBlERHS" name="controls">
    <mxGraphModel dx="1422" dy="745" grid="1" gridSize="10" guides="1" tooltips="1" connect="1" arrows="1" fold="1" page="1" pageScale="1" pageWidth="827" pageHeight="1169" math="0" shadow="0">
      <root>
        <mxCell id="eO9CP8GYeZcwPHQrlavQ-0"/>
        <mxCell id="eO9CP8GYeZcwPHQrlavQ-1" parent="eO9CP8GYeZcwPHQrlavQ-0"/>
        <mxCell id="pIxW7CxdCtVZP4g3NeIT-0" style="edgeStyle=orthogonalEdgeStyle;rounded=0;orthogonalLoop=1;jettySize=auto;html=1;exitX=0.5;exitY=1;exitDx=0;exitDy=0;entryX=0.5;entryY=0;entryDx=0;entryDy=0;" edge="1" parent="eO9CP8GYeZcwPHQrlavQ-1" source="pIxW7CxdCtVZP4g3NeIT-1" target="pIxW7CxdCtVZP4g3NeIT-3">
          <mxGeometry relative="1" as="geometry"/>
        </mxCell>
        <mxCell id="pIxW7CxdCtVZP4g3NeIT-1" value="begin" style="rounded=1;whiteSpace=wrap;html=1;" vertex="1" parent="eO9CP8GYeZcwPHQrlavQ-1">
          <mxGeometry x="365" y="80" width="120" height="30" as="geometry"/>
        </mxCell>
        <mxCell id="pIxW7CxdCtVZP4g3NeIT-2" value="&lt;b&gt;servopulse(int servopin,int myangle) &lt;/b&gt;//defining a function of pulse" style="text;html=1;strokeColor=none;fillColor=none;align=left;verticalAlign=middle;whiteSpace=wrap;rounded=0;" vertex="1" parent="eO9CP8GYeZcwPHQrlavQ-1">
          <mxGeometry x="50" y="40" width="720" height="20" as="geometry"/>
        </mxCell>
        <mxCell id="pIxW7CxdCtVZP4g3NeIT-6" style="edgeStyle=orthogonalEdgeStyle;rounded=0;orthogonalLoop=1;jettySize=auto;html=1;exitX=0.5;exitY=1;exitDx=0;exitDy=0;entryX=0.5;entryY=0;entryDx=0;entryDy=0;" edge="1" parent="eO9CP8GYeZcwPHQrlavQ-1" source="pIxW7CxdCtVZP4g3NeIT-3" target="pIxW7CxdCtVZP4g3NeIT-5">
          <mxGeometry relative="1" as="geometry"/>
        </mxCell>
        <mxCell id="pIxW7CxdCtVZP4g3NeIT-3" value="&lt;div&gt;pulsewidth=(myangle*11)+500; //converting angle into pulse width value at 500-2480&amp;nbsp;&lt;/div&gt;&lt;div&gt;digitalWrite(servopin,HIGH); //increasing the level of motor interface to upmost&lt;/div&gt;&lt;div&gt;delayMicroseconds(pulsewidth); //delaying microsecond of pulse width value&lt;/div&gt;&lt;div&gt;digitalWrite(servopin,LOW); //decreasing the level of motor interface to the least&lt;/div&gt;&lt;div&gt;delay(20-pulsewidth/1000);&lt;/div&gt;" style="rounded=0;whiteSpace=wrap;html=1;align=left;" vertex="1" parent="eO9CP8GYeZcwPHQrlavQ-1">
          <mxGeometry x="170" y="130" width="510" height="80" as="geometry"/>
        </mxCell>
        <mxCell id="pIxW7CxdCtVZP4g3NeIT-5" value="end" style="rounded=1;whiteSpace=wrap;html=1;" vertex="1" parent="eO9CP8GYeZcwPHQrlavQ-1">
          <mxGeometry x="365" y="240" width="120" height="30" as="geometry"/>
        </mxCell>
        <mxCell id="pIxW7CxdCtVZP4g3NeIT-8" style="edgeStyle=orthogonalEdgeStyle;rounded=0;orthogonalLoop=1;jettySize=auto;html=1;exitX=0.5;exitY=1;exitDx=0;exitDy=0;entryX=0.5;entryY=0;entryDx=0;entryDy=0;" edge="1" parent="eO9CP8GYeZcwPHQrlavQ-1" source="pIxW7CxdCtVZP4g3NeIT-9" target="pIxW7CxdCtVZP4g3NeIT-14">
          <mxGeometry relative="1" as="geometry">
            <mxPoint x="425" y="400" as="targetPoint"/>
          </mxGeometry>
        </mxCell>
        <mxCell id="pIxW7CxdCtVZP4g3NeIT-9" value="begin" style="rounded=1;whiteSpace=wrap;html=1;" vertex="1" parent="eO9CP8GYeZcwPHQrlavQ-1">
          <mxGeometry x="365" y="330" width="120" height="30" as="geometry"/>
        </mxCell>
        <mxCell id="pIxW7CxdCtVZP4g3NeIT-10" value="&lt;b&gt;Set_servopulse(int set_val)&lt;/b&gt;" style="text;html=1;strokeColor=none;fillColor=none;align=left;verticalAlign=middle;whiteSpace=wrap;rounded=0;" vertex="1" parent="eO9CP8GYeZcwPHQrlavQ-1">
          <mxGeometry x="50" y="310" width="720" height="20" as="geometry"/>
        </mxCell>
        <mxCell id="pIxW7CxdCtVZP4g3NeIT-11" style="edgeStyle=orthogonalEdgeStyle;rounded=0;orthogonalLoop=1;jettySize=auto;html=1;exitX=0.5;exitY=1;exitDx=0;exitDy=0;entryX=0.5;entryY=0;entryDx=0;entryDy=0;" edge="1" parent="eO9CP8GYeZcwPHQrlavQ-1" target="pIxW7CxdCtVZP4g3NeIT-13">
          <mxGeometry relative="1" as="geometry">
            <mxPoint x="425" y="480" as="sourcePoint"/>
          </mxGeometry>
        </mxCell>
        <mxCell id="pIxW7CxdCtVZP4g3NeIT-13" value="end" style="rounded=1;whiteSpace=wrap;html=1;" vertex="1" parent="eO9CP8GYeZcwPHQrlavQ-1">
          <mxGeometry x="365" y="530" width="120" height="30" as="geometry"/>
        </mxCell>
        <mxCell id="pIxW7CxdCtVZP4g3NeIT-18" style="edgeStyle=orthogonalEdgeStyle;rounded=0;orthogonalLoop=1;jettySize=auto;html=1;exitX=1;exitY=0.5;exitDx=0;exitDy=0;entryX=0.5;entryY=0;entryDx=0;entryDy=0;" edge="1" parent="eO9CP8GYeZcwPHQrlavQ-1" source="pIxW7CxdCtVZP4g3NeIT-14" target="pIxW7CxdCtVZP4g3NeIT-17">
          <mxGeometry relative="1" as="geometry"/>
        </mxCell>
        <mxCell id="pIxW7CxdCtVZP4g3NeIT-14" value="int i=0;i&amp;lt;=10;i++" style="rhombus;whiteSpace=wrap;html=1;align=center;" vertex="1" parent="eO9CP8GYeZcwPHQrlavQ-1">
          <mxGeometry x="385" y="400" width="80" height="80" as="geometry"/>
        </mxCell>
        <mxCell id="pIxW7CxdCtVZP4g3NeIT-19" style="edgeStyle=orthogonalEdgeStyle;rounded=0;orthogonalLoop=1;jettySize=auto;html=1;exitX=0.5;exitY=1;exitDx=0;exitDy=0;entryX=0.5;entryY=0;entryDx=0;entryDy=0;" edge="1" parent="eO9CP8GYeZcwPHQrlavQ-1" source="pIxW7CxdCtVZP4g3NeIT-17" target="pIxW7CxdCtVZP4g3NeIT-14">
          <mxGeometry relative="1" as="geometry">
            <Array as="points">
              <mxPoint x="610" y="540"/>
              <mxPoint x="720" y="540"/>
              <mxPoint x="720" y="380"/>
              <mxPoint x="425" y="380"/>
            </Array>
          </mxGeometry>
        </mxCell>
        <mxCell id="pIxW7CxdCtVZP4g3NeIT-17" value="servopulse(servopin,set_val); //invokimg pulse function" style="rounded=0;whiteSpace=wrap;html=1;align=center;" vertex="1" parent="eO9CP8GYeZcwPHQrlavQ-1">
          <mxGeometry x="520" y="460" width="180" height="60" as="geometry"/>
        </mxCell>
        <mxCell id="pIxW7CxdCtVZP4g3NeIT-20" style="edgeStyle=orthogonalEdgeStyle;rounded=0;orthogonalLoop=1;jettySize=auto;html=1;exitX=0.5;exitY=1;exitDx=0;exitDy=0;entryX=0.5;entryY=0;entryDx=0;entryDy=0;" edge="1" parent="eO9CP8GYeZcwPHQrlavQ-1" source="pIxW7CxdCtVZP4g3NeIT-21" target="pIxW7CxdCtVZP4g3NeIT-23">
          <mxGeometry relative="1" as="geometry">
            <mxPoint x="425" y="680" as="targetPoint"/>
          </mxGeometry>
        </mxCell>
        <mxCell id="pIxW7CxdCtVZP4g3NeIT-21" value="begin" style="rounded=1;whiteSpace=wrap;html=1;" vertex="1" parent="eO9CP8GYeZcwPHQrlavQ-1">
          <mxGeometry x="365" y="610" width="120" height="30" as="geometry"/>
        </mxCell>
        <mxCell id="pIxW7CxdCtVZP4g3NeIT-22" value="&lt;b&gt;Set_servopulse(int set_val)&lt;/b&gt;" style="text;html=1;strokeColor=none;fillColor=none;align=left;verticalAlign=middle;whiteSpace=wrap;rounded=0;" vertex="1" parent="eO9CP8GYeZcwPHQrlavQ-1">
          <mxGeometry x="50" y="590" width="720" height="20" as="geometry"/>
        </mxCell>
        <mxCell id="pIxW7CxdCtVZP4g3NeIT-25" style="edgeStyle=orthogonalEdgeStyle;rounded=0;orthogonalLoop=1;jettySize=auto;html=1;exitX=0.5;exitY=1;exitDx=0;exitDy=0;entryX=0.5;entryY=0;entryDx=0;entryDy=0;" edge="1" parent="eO9CP8GYeZcwPHQrlavQ-1" source="pIxW7CxdCtVZP4g3NeIT-23" target="pIxW7CxdCtVZP4g3NeIT-24">
          <mxGeometry relative="1" as="geometry"/>
        </mxCell>
        <mxCell id="pIxW7CxdCtVZP4g3NeIT-23" value="&lt;div&gt;&amp;nbsp; pinMode(pinLB,OUTPUT); // /pin 2&lt;/div&gt;&lt;div&gt;&amp;nbsp; pinMode(pinLF,OUTPUT); // pin 4&lt;/div&gt;&lt;div&gt;&amp;nbsp; pinMode(pinRB,OUTPUT); // pin 7&lt;/div&gt;&lt;div&gt;&amp;nbsp; pinMode(pinRF,OUTPUT);&amp;nbsp; // pin 8&lt;/div&gt;&lt;div&gt;&amp;nbsp; pinMode(Lpwm_pin,OUTPUT);&amp;nbsp; // pin 11 (PWM)&amp;nbsp;&lt;/div&gt;&lt;div&gt;&amp;nbsp; pinMode(Rpwm_pin,OUTPUT);&amp;nbsp; // pin10(PWM)&amp;nbsp;&lt;/div&gt;" style="rounded=0;whiteSpace=wrap;html=1;align=left;" vertex="1" parent="eO9CP8GYeZcwPHQrlavQ-1">
          <mxGeometry x="280" y="670" width="290" height="100" as="geometry"/>
        </mxCell>
        <mxCell id="pIxW7CxdCtVZP4g3NeIT-24" value="end" style="rounded=1;whiteSpace=wrap;html=1;" vertex="1" parent="eO9CP8GYeZcwPHQrlavQ-1">
          <mxGeometry x="365" y="800" width="120" height="30" as="geometry"/>
        </mxCell>
        <mxCell id="pIxW7CxdCtVZP4g3NeIT-26" style="edgeStyle=orthogonalEdgeStyle;rounded=0;orthogonalLoop=1;jettySize=auto;html=1;exitX=0.5;exitY=1;exitDx=0;exitDy=0;entryX=0.5;entryY=0;entryDx=0;entryDy=0;" edge="1" parent="eO9CP8GYeZcwPHQrlavQ-1" source="pIxW7CxdCtVZP4g3NeIT-27" target="pIxW7CxdCtVZP4g3NeIT-30">
          <mxGeometry relative="1" as="geometry">
            <mxPoint x="431" y="960" as="targetPoint"/>
          </mxGeometry>
        </mxCell>
        <mxCell id="pIxW7CxdCtVZP4g3NeIT-27" value="begin" style="rounded=1;whiteSpace=wrap;html=1;" vertex="1" parent="eO9CP8GYeZcwPHQrlavQ-1">
          <mxGeometry x="371" y="890" width="120" height="30" as="geometry"/>
        </mxCell>
        <mxCell id="pIxW7CxdCtVZP4g3NeIT-28" value="&lt;b&gt;Set_Speed(unsigned char Left,unsigned char Right) &lt;/b&gt;//function of setting speed" style="text;html=1;strokeColor=none;fillColor=none;align=left;verticalAlign=middle;whiteSpace=wrap;rounded=0;" vertex="1" parent="eO9CP8GYeZcwPHQrlavQ-1">
          <mxGeometry x="53" y="870" width="720" height="20" as="geometry"/>
        </mxCell>
        <mxCell id="pIxW7CxdCtVZP4g3NeIT-29" style="edgeStyle=orthogonalEdgeStyle;rounded=0;orthogonalLoop=1;jettySize=auto;html=1;exitX=0.5;exitY=1;exitDx=0;exitDy=0;entryX=0.5;entryY=0;entryDx=0;entryDy=0;" edge="1" parent="eO9CP8GYeZcwPHQrlavQ-1" source="pIxW7CxdCtVZP4g3NeIT-30" target="pIxW7CxdCtVZP4g3NeIT-31">
          <mxGeometry relative="1" as="geometry"/>
        </mxCell>
        <mxCell id="pIxW7CxdCtVZP4g3NeIT-30" value="&lt;div&gt;&amp;nbsp; analogWrite(Lpwm_pin,Left);&lt;/div&gt;&lt;div&gt;&amp;nbsp; analogWrite(Rpwm_pin,Right);&lt;/div&gt;" style="rounded=0;whiteSpace=wrap;html=1;align=left;" vertex="1" parent="eO9CP8GYeZcwPHQrlavQ-1">
          <mxGeometry x="286" y="950" width="290" height="40" as="geometry"/>
        </mxCell>
        <mxCell id="pIxW7CxdCtVZP4g3NeIT-31" value="end" style="rounded=1;whiteSpace=wrap;html=1;" vertex="1" parent="eO9CP8GYeZcwPHQrlavQ-1">
          <mxGeometry x="368" y="1020" width="120" height="30" as="geometry"/>
        </mxCell>
      </root>
    </mxGraphModel>
  </diagram>
</mxfile>
